<?xml version="1.0" encoding="utf-8"?>
<!-- Generator: Adobe Illustrator 16.0.2, SVG Export Plug-In . SVG Version: 6.00 Build 0)  -->
<!DOCTYPE svg PUBLIC "-//W3C//DTD SVG 1.0//EN" "http://www.w3.org/TR/2001/REC-SVG-20010904/DTD/svg10.dtd">
<svg version="1.0" id="Layer_1" xmlns="http://www.w3.org/2000/svg" xmlns:xlink="http://www.w3.org/1999/xlink" x="0px" y="0px"
	 width="510px" height="752px" viewBox="0 0 510 752" enable-background="new 0 0 510 752" xml:space="preserve">
<g>
	<g>
		<path d="M243.62,20.11c8.58-1.76,17.2,1.81,23.99,6.81c13.04,20.03,14.13,46.3,6.02,68.43c-3.82,11.69-11.1,22.38-21.18,29.54
			c-6.05,4.21-13.55,6.41-20.92,5.38c-8.87-1.19-16.74-6.21-23.12-12.28c-2.98-2.61-4.22-6.49-5.55-10.09
			c-4.6-13.12-4.66-27.68-0.37-40.88c5.2-16.27,16.2-30.1,29.02-41.1C234.88,22.87,239.19,21.01,243.62,20.11z"/>
		<path d="M347.12,57.67c23.17-18.87,57.1-22.92,84.17-10.41c3.58,1.65,6.71,4.09,10.09,6.1c-4.11,13.33-8.39,26.6-12.61,39.89
			c-20.39-0.4-41.73,4.19-58.16,16.82c-12.2,9.35-19.87,23.74-22.23,38.81c-2.7,16.64-3.05,33.91,0.88,50.39
			c2.91,11.86,9.09,23.65,19.72,30.27c10.22,6.58,23.01,7.23,34.73,5.63c9.88-1.45,19.28-5.16,27.96-10.04
			c-2.93-14.92-5.2-30.51-1.82-45.55c1.76-8.13,7.21-16.23,15.73-18.2c9.36-2.03,19.22,0.67,27.58,4.92
			c8.09,7.39,11.28,18.65,12.73,29.18c2,14.85,0.07,29.94-3.01,44.5c-5.31,19.42-15.97,37.86-31.91,50.43
			c-0.37-0.54-1.1-1.61-1.47-2.15c5.57-8.47,12.03-16.99,13.88-27.19c1.29-4.58-2.92-7.53-6.07-9.89
			c-11.21-7.92-25.56-9.82-38.96-8.68c-13,1.22-25.63,4.99-37.69,9.91c-4.32,1.55-7.72,4.76-11.44,7.33
			c-9.49,7.07-19.08,14.15-27.33,22.69c-1.7,1.63-2.87,3.68-3.68,5.87c-9.01-4.65-15.64-12.77-20.77-21.32
			c-10.55-17.87-14.97-38.61-17.1-59.04c-2.21-25.22-1.15-50.69,2.37-75.74C310.22,104.03,324.04,76.24,347.12,57.67z"/>
		<path d="M126.54,108.46c16.14-1.04,32.27-2.17,48.41-3.26c-3.19-13.95-6.29-27.91-9.38-41.88c-9.71,0.5-19.34-1.45-28.89-2.91
			c-28.66-4.95-57-11.51-85.29-18.22C46.97,66,42.64,89.83,38.15,113.63c18.8-8.09,38.73-13.19,58.74-17.27
			c-4.39,52.07-8.22,104.2-12.61,156.28c6.57,2.07,13.58,1.13,20.13-0.52c8.03-2.09,15.83-5.12,23.12-9.09
			c3.08-1.76,6.45-3.54,8.08-6.87c-1.91-5.53-1.78-11.46-2.5-17.19C130.27,182.17,128.38,145.31,126.54,108.46z"/>
		<path d="M221.12,160.96c11.6-0.31,23.18-1.07,34.77-1.44c0.98,20.32,0.67,40.68,1.76,61c-8.01-0.12-16.01-0.62-23.95-1.65
			c-3.55-0.5-7.11-1.17-10.34-2.8c-2.98-9.71-1.87-20.01-2.48-30.01C220.78,177.69,220.75,169.32,221.12,160.96z"/>
		<path d="M219.65,226.94c10.43,0.96,20.95,0.55,31.4,1.28c7.89,0.34,15.79,0.49,23.68,0.75c14.8,64.82,29.53,129.66,44.5,194.44
			c3.52,14.85,6.77,29.76,10.6,44.53c0.44,2.03-0.05,4.95-2.25,5.7c-1.94-0.06-3.9-0.36-5.61-1.32
			c-21.49-11.44-42.96-22.91-64.48-34.28c-0.17-3.94-0.34-7.88-0.49-11.82c10.8,4.95,21.57,9.97,32.41,14.82
			c-16.92-49.12-33.77-98.26-50.63-147.4c-15.77,32.51-31.36,65.1-47.09,97.63c9.08,4.79,18.15,9.62,27.19,14.48
			c0.49,5.09,0.95,10.18,1.12,15.3c-11.33-3.72-22.64-7.54-33.96-11.29c-4.75,10.96-9.47,21.93-14.16,32.9
			c-11.16-0.28-22.28,0.59-33.43,0.39c-7.17-0.13-14.34,0.23-21.52,0.19C151.15,371.13,185.44,299.06,219.65,226.94z"/>
		<path d="M46.1,250.61c38.46,5.42,77.01,10.4,115.21,17.51c3,0.98,7.81,0.56,8.71,4.41c2.9,10.52,5.47,21.42,4.83,32.41
			c-0.07,2.8-3.37,3.36-5.53,3.84c-13.28,2.02-26.77,1.54-40.16,1.66c0.05,8.19-0.19,16.39,0.39,24.57
			c-0.09,24,0.09,47.98,0.19,71.98c0.2,3.23-1.12,6.25-2.11,9.25c-2.55,7-5.29,14.08-9.83,20.06c-2.16,2.93-5.5,5.24-9.29,5.07
			c-8.74,0.02-17.55-0.42-26.18-1.83c3.39-35.56,6.12-71.24,11.27-106.62c1.34-8.79,2.65-17.63,5.17-26.18
			c-20.14,4.28-40.3,8.58-60.23,13.73c-1.99-0.29-1.35-3.01-1.69-4.44c-0.08-15.28,1.79-30.49,3.9-45.6
			C41.99,263.72,42.56,256.6,46.1,250.61z"/>
		<path d="M376.49,263.1c16.37-9.03,36.11-11.61,54.26-7.19c4.74,2.13,9.88,5.38,10.98,10.88c-3.13,17.89-5.68,35.96-10.81,53.42
			c-0.93,2.64-1.58,5.61-3.66,7.61c-3.07,1.67-6.93,1.89-10.19,0.66c-10.67-3.84-23.02-4.39-33.36,0.75
			c-8.26,4.01-14.23,11.6-17.79,19.91c-3.78,8.47-5.3,17.7-6.46,26.84c-2.33,13.12-2.54,27.12,2.53,39.65
			c3.42,8.54,10.66,15.45,19.48,18.2c9.9,3.46,20.74,1.96,30.44-1.39c10.21-3.57,19.42-9.96,26.33-18.29
			c-5.58-13.21-8.87-27.93-6.4-42.24c1.76-10.44,8.74-19.39,17.45-25.12c4.87-3.21,11.23-4.67,16.8-2.46
			c6.24,2.71,10.68,8.59,13.06,14.8c3.86,18.25,5.56,37.13,3.57,55.73c-1.18,10.05-3.53,20.09-8.23,29.11
			c-3.24,6.71-8.55,12.04-12.98,17.92c-1.09-8.81-2.04-17.77-4.99-26.19c-16.15,6.08-31.64,13.75-47.34,20.9
			c-18.98,8.88-37.93,17.85-56.79,26.98c-2.59,1.49-5.21-1.2-5.87-3.59c-10.49-29.24-21.7-58.26-30.72-88
			c-1.12-3.89-2.36-7.83-2.35-11.92c-0.1-8.95-0.68-17.97,0.58-26.86c1.48-13.01,6.04-25.58,12.95-36.68
			C339.28,295.48,354.72,275.04,376.49,263.1z"/>
		<path d="M230.44,318.77c2.46-5.66,5.18-11.21,7.82-16.79c3.33,11.71,6.88,23.35,10.31,35.03c3.33,8.6,1.77,18.01,1.62,26.99
			c-0.02,25.38-0.55,50.75-0.46,76.13c-8.15-0.78-16.33-0.28-24.49-0.74c1.32-35.5,2.98-70.98,4.35-106.48
			C230.11,328.21,229.67,323.42,230.44,318.77z"/>
		<path d="M140.43,338.59c6.9-3.47,13.82-6.9,20.72-10.36c-6.66,15.7-13.36,31.39-19.89,47.15
			C141.04,363.11,140.64,350.85,140.43,338.59z"/>
		<path d="M217.33,351.09c0.65,0.09,1.96,0.27,2.62,0.35c0.08,13.66,0.18,27.31,0.63,40.96c-4.91-2.75-9.81-5.52-14.74-8.22
			C209.62,373.13,213.49,362.12,217.33,351.09z"/>
		<path d="M256.44,372.73c0.73-0.03,2.19-0.1,2.92-0.14c5.49,20.06,11.41,39.99,16.93,60.04c-6.44-3.84-13.35-6.82-19.88-10.53
			C256.5,405.65,256.43,389.19,256.44,372.73z"/>
		<path d="M183.72,464.58c3.86-14.15,8.26-28.15,12.67-42.14c6.46,2.91,13.05,5.53,19.53,8.42c-0.08,4.01,0.14,8.01,0.29,12.02
			C205.15,449.75,194.01,456.58,183.72,464.58z"/>
		<g>
			<path d="M36.65,443.33c1.53-3.77,3.08-7.6,5.51-10.9c39.38,11.49,78.63,23.46,118.01,34.98c4.48,7.93,8.44,16.8,7.75,26.13
				c8.53-14.37,20.68-26.42,34.67-35.5c12.18-9.72,28.81-13.71,44.02-10.12c9.64,2.29,19.02,6.72,26.08,13.77
				c25.01,29.57,41.08,66.81,44.72,105.41c1.8,21.67-0.05,43.7-6.05,64.63c-4.85,15.82-12.69,30.92-23.99,43.1
				c-10.57,11.34-24.88,19.33-40.29,21.55c-10.17,1.57-20.65,1.01-30.65-1.33c-16.2-6.26-29.29-18.72-39.34-32.62
				c-15.81-22.22-24.14-48.87-28.43-75.56c-1.97-11.22-1.31-22.67-0.27-33.94c2.17-19.05,7.24-38.03,16.8-54.74
				c-3.95,2.33-8.54,3.05-13,3.7c-10.73,1.29-21.53,1.22-32.32,1.15c1.67,46.84,2.37,93.72,3.94,140.56
				c-22.15,6.06-44.55,11.38-66.23,19.03c-0.09-4.24,1.2-8.33,2.04-12.45c10.13-44.34,21.16-88.47,31.44-132.77
				c1.78-8.99,4.72-17.82,5.37-26.99c-3.25,1.87-6.63,3.53-10.26,4.52c-20.82,7.1-41.65,14.19-62.4,21.51
				c0.5-11.18,1.8-22.3,3.39-33.37C29.21,469.61,31.8,456.11,36.65,443.33z M201.15,492.69c-10.37,8.07-17.37,19.68-22.05,31.81
				c-6.95,18.25-8.9,38.51-4.73,57.65c3.88,18.22,12.76,35.28,25.14,49.16c-1.55,11.59-2.88,23.2-4.41,34.79
				c-0.49,2.81,0.98,5.5,2.27,7.91c4.05,6.78,11.93,9.87,19.32,11.35c12.37,2.18,25.12,1.38,37.41-0.91
				c5.99-1.65,8.45-8.16,9.98-13.56c4.13-17.01,3.47-34.72,2.73-52.08c5.15-6.58,8.63-14.25,11.78-21.93
				c5.02-11.25,5.41-23.79,6.22-35.89c-0.01-13.16-1.64-26.53-6.67-38.79c-6.09-15.38-17.43-28.79-32.03-36.7
				c-4.43-2.62-9.77-1.74-14.65-2.27C220.59,482.21,209.74,486.18,201.15,492.69z"/>
		</g>
		<path d="M440.55,459.04c5.56-1.31,11.17-2.6,16.9-2.8c1.84,17.99,4.87,35.86,6.55,53.88c0.16,2.8,0.98,5.69-0.06,8.43
			c-29.77-2.7-59.44-6.52-89.19-9.54c-7.04,14.55-8.78,30.89-9.68,46.82c13.16-3.07,26.32-6.17,39.47-9.29
			c0.45,11.18,1.22,22.34,1.68,33.53c0.75,7.46,0.35,15,1.43,22.43c-11.39,1.56-23.2,1.83-34.45-0.87
			c-0.69,10.05,0.05,20.15-0.41,30.22c-0.16,5.72-0.03,11.45-0.06,17.18c26.94-9.12,54.68-16.24,82.98-19.42
			c4.19,22.06,7.99,44.21,10.62,66.52c1.18,10.77,2.26,21.65,1.18,32.49c-20.23-6.41-39.87-14.6-59.25-23.23
			c-29.23-13.3-57.81-28.44-83.81-47.39c3.56-24.07,5.57-48.36,6.51-72.67c0.32-18.35,0.32-36.99-4.05-54.92
			c-1.58-7.39-6.07-13.59-9.04-20.41c2.23-3.6,6.37-4.87,9.93-6.72c18.45-8.85,37.1-17.3,56.06-25.03
			C402.37,470.8,421.13,463.76,440.55,459.04z"/>
		<path d="M218.26,511.74c10.05-7.07,23.57-8.03,34.85-3.46c0.81,22.09,0.58,44.21,0.9,66.31c0.33,7.81,0.08,15.62,0.15,23.43
			c0.7,12.36,0.33,24.74,0.33,37.11c-1.03,9.82-1.23,19.87-4.31,29.33c-1.35,4.06-3.73,8.49-8.1,9.81
			c-7.77,1.69-15.79,1.23-23.67,0.76c-3.35-0.19-6.98-1.13-9.18-3.85c-1.87-2.26-2.34-5.31-2.14-8.16
			C210.84,612.6,214.51,562.17,218.26,511.74z"/>
		<path d="M258.23,509.53c4.79,5.77,9.71,11.44,14.41,17.28c12.8,28.14,8.24,63.51-11.81,87.18
			C259.95,579.17,259.35,544.34,258.23,509.53z"/>
		<path d="M199.2,531.68c3.59-7.28,10.38-12.11,15.49-18.23c-2.3,31.53-4.33,63.08-7.11,94.57c-0.27,1.64-0.25,3.45-1.15,4.91
			c-1.64,0.33-2.76-1.03-3.83-2.01c-9.31-9.87-14.43-23.26-15.05-36.73C187.08,559.24,191.89,544.57,199.2,531.68z"/>
	</g>
	<g>
		<path fill="#999999" d="M243.62,20.11c8.58-1.76,17.2,1.81,23.99,6.81c13.04,20.03,14.13,46.3,6.02,68.43
			c-3.82,11.69-11.1,22.38-21.18,29.54c-6.05,4.21-13.55,6.41-20.92,5.38c-8.87-1.19-16.74-6.21-23.12-12.28
			c-2.98-2.61-4.22-6.49-5.55-10.09c-4.6-13.12-4.66-27.68-0.37-40.88c5.2-16.27,16.2-30.1,29.02-41.1
			C234.88,22.87,239.19,21.01,243.62,20.11z"/>
		<path fill="#999999" d="M347.12,57.67c23.17-18.87,57.1-22.92,84.17-10.41c3.58,1.65,6.71,4.09,10.09,6.1
			c-4.11,13.33-8.39,26.6-12.61,39.89c-20.39-0.4-41.73,4.19-58.16,16.82c-12.2,9.35-19.87,23.74-22.23,38.81
			c-2.7,16.64-3.05,33.91,0.88,50.39c2.91,11.86,9.09,23.65,19.72,30.27c10.22,6.58,23.01,7.23,34.73,5.63
			c9.88-1.45,19.28-5.16,27.96-10.04c-2.93-14.92-5.2-30.51-1.82-45.55c1.76-8.13,7.21-16.23,15.73-18.2
			c9.36-2.03,19.22,0.67,27.58,4.92c8.09,7.39,11.28,18.65,12.73,29.18c2,14.85,0.07,29.94-3.01,44.5
			c-5.31,19.42-15.97,37.86-31.91,50.43c-0.37-0.54-1.1-1.61-1.47-2.15c5.57-8.47,12.03-16.99,13.88-27.19
			c1.29-4.58-2.92-7.53-6.07-9.89c-11.21-7.92-25.56-9.82-38.96-8.68c-13,1.22-25.63,4.99-37.69,9.91
			c-4.32,1.55-7.72,4.76-11.44,7.33c-9.49,7.07-19.08,14.15-27.33,22.69c-1.7,1.63-2.87,3.68-3.68,5.87
			c-9.01-4.65-15.64-12.77-20.77-21.32c-10.55-17.87-14.97-38.61-17.1-59.04c-2.21-25.22-1.15-50.69,2.37-75.74
			C310.22,104.03,324.04,76.24,347.12,57.67z"/>
		<path fill="#999999" d="M126.54,108.46c16.14-1.04,32.27-2.17,48.41-3.26c-3.19-13.95-6.29-27.91-9.38-41.88
			c-9.71,0.5-19.34-1.45-28.89-2.91c-28.66-4.95-57-11.51-85.29-18.22C46.97,66,42.64,89.83,38.15,113.63
			c18.8-8.09,38.73-13.19,58.74-17.27c-4.39,52.07-8.22,104.2-12.61,156.28c6.57,2.07,13.58,1.13,20.13-0.52
			c8.03-2.09,15.83-5.12,23.12-9.09c3.08-1.76,6.45-3.54,8.08-6.87c-1.91-5.53-1.78-11.46-2.5-17.19
			C130.27,182.17,128.38,145.31,126.54,108.46z"/>
		<path fill="#999999" d="M221.12,160.96c11.6-0.31,23.18-1.07,34.77-1.44c0.98,20.32,0.67,40.68,1.76,61
			c-8.01-0.12-16.01-0.62-23.95-1.65c-3.55-0.5-7.11-1.17-10.34-2.8c-2.98-9.71-1.87-20.01-2.48-30.01
			C220.78,177.69,220.75,169.32,221.12,160.96z"/>
		<path fill="#999999" d="M219.65,226.94c10.43,0.96,20.95,0.55,31.4,1.28c7.89,0.34,15.79,0.49,23.68,0.75
			c14.8,64.82,29.53,129.66,44.5,194.44c3.52,14.85,6.77,29.76,10.6,44.53c0.44,2.03-0.05,4.95-2.25,5.7
			c-1.94-0.06-3.9-0.36-5.61-1.32c-21.49-11.44-42.96-22.91-64.48-34.28c-0.17-3.94-0.34-7.88-0.49-11.82
			c10.8,4.95,21.57,9.97,32.41,14.82c-16.92-49.12-33.77-98.26-50.63-147.4c-15.77,32.51-31.36,65.1-47.09,97.63
			c9.08,4.79,18.15,9.62,27.19,14.48c0.49,5.09,0.95,10.18,1.12,15.3c-11.33-3.72-22.64-7.54-33.96-11.29
			c-4.75,10.96-9.47,21.93-14.16,32.9c-11.16-0.28-22.28,0.59-33.43,0.39c-7.17-0.13-14.34,0.23-21.52,0.19
			C151.15,371.13,185.44,299.06,219.65,226.94z"/>
		<path fill="#999999" d="M46.1,250.61c38.46,5.42,77.01,10.4,115.21,17.51c3,0.98,7.81,0.56,8.71,4.41
			c2.9,10.52,5.47,21.42,4.83,32.41c-0.07,2.8-3.37,3.36-5.53,3.84c-13.28,2.02-26.77,1.54-40.16,1.66
			c0.05,8.19-0.19,16.39,0.39,24.57c-0.09,24,0.09,47.98,0.19,71.98c0.2,3.23-1.12,6.25-2.11,9.25c-2.55,7-5.29,14.08-9.83,20.06
			c-2.16,2.93-5.5,5.24-9.29,5.07c-8.74,0.02-17.55-0.42-26.18-1.83c3.39-35.56,6.12-71.24,11.27-106.62
			c1.34-8.79,2.65-17.63,5.17-26.18c-20.14,4.28-40.3,8.58-60.23,13.73c-1.99-0.29-1.35-3.01-1.69-4.44
			c-0.08-15.28,1.79-30.49,3.9-45.6C41.99,263.72,42.56,256.6,46.1,250.61z"/>
		<path fill="#999999" d="M376.49,263.1c16.37-9.03,36.11-11.61,54.26-7.19c4.74,2.13,9.88,5.38,10.98,10.88
			c-3.13,17.89-5.68,35.96-10.81,53.42c-0.93,2.64-1.58,5.61-3.66,7.61c-3.07,1.67-6.93,1.89-10.19,0.66
			c-10.67-3.84-23.02-4.39-33.36,0.75c-8.26,4.01-14.23,11.6-17.79,19.91c-3.78,8.47-5.3,17.7-6.46,26.84
			c-2.33,13.12-2.54,27.12,2.53,39.65c3.42,8.54,10.66,15.45,19.48,18.2c9.9,3.46,20.74,1.96,30.44-1.39
			c10.21-3.57,19.42-9.96,26.33-18.29c-5.58-13.21-8.87-27.93-6.4-42.24c1.76-10.44,8.74-19.39,17.45-25.12
			c4.87-3.21,11.23-4.67,16.8-2.46c6.24,2.71,10.68,8.59,13.06,14.8c3.86,18.25,5.56,37.13,3.57,55.73
			c-1.18,10.05-3.53,20.09-8.23,29.11c-3.24,6.71-8.55,12.04-12.98,17.92c-1.09-8.81-2.04-17.77-4.99-26.19
			c-16.15,6.08-31.64,13.75-47.34,20.9c-18.98,8.88-37.93,17.85-56.79,26.98c-2.59,1.49-5.21-1.2-5.87-3.59
			c-10.49-29.24-21.7-58.26-30.72-88c-1.12-3.89-2.36-7.83-2.35-11.92c-0.1-8.95-0.68-17.97,0.58-26.86
			c1.48-13.01,6.04-25.58,12.95-36.68C339.28,295.48,354.72,275.04,376.49,263.1z"/>
		<path fill="#999999" d="M230.44,318.77c2.46-5.66,5.18-11.21,7.82-16.79c3.33,11.71,6.88,23.35,10.31,35.03
			c3.33,8.6,1.77,18.01,1.62,26.99c-0.02,25.38-0.55,50.75-0.46,76.13c-8.15-0.78-16.33-0.28-24.49-0.74
			c1.32-35.5,2.98-70.98,4.35-106.48C230.11,328.21,229.67,323.42,230.44,318.77z"/>
		<path fill="#999999" d="M140.43,338.59c6.9-3.47,13.82-6.9,20.72-10.36c-6.66,15.7-13.36,31.39-19.89,47.15
			C141.04,363.11,140.64,350.85,140.43,338.59z"/>
		<path fill="#999999" d="M217.33,351.09c0.65,0.09,1.96,0.27,2.62,0.35c0.08,13.66,0.18,27.31,0.63,40.96
			c-4.91-2.75-9.81-5.52-14.74-8.22C209.62,373.13,213.49,362.12,217.33,351.09z"/>
		<path fill="#999999" d="M256.44,372.73c0.73-0.03,2.19-0.1,2.92-0.14c5.49,20.06,11.41,39.99,16.93,60.04
			c-6.44-3.84-13.35-6.82-19.88-10.53C256.5,405.65,256.43,389.19,256.44,372.73z"/>
		<path fill="#999999" d="M183.72,464.58c3.86-14.15,8.26-28.15,12.67-42.14c6.46,2.91,13.05,5.53,19.53,8.42
			c-0.08,4.01,0.14,8.01,0.29,12.02C205.15,449.75,194.01,456.58,183.72,464.58z"/>
		<g>
			<path fill="#999999" d="M36.65,443.33c1.53-3.77,3.08-7.6,5.51-10.9c39.38,11.49,78.63,23.46,118.01,34.98
				c4.48,7.93,8.44,16.8,7.75,26.13c8.53-14.37,20.68-26.42,34.67-35.5c12.18-9.72,28.81-13.71,44.02-10.12
				c9.64,2.29,19.02,6.72,26.08,13.77c25.01,29.57,41.08,66.81,44.72,105.41c1.8,21.67-0.05,43.7-6.05,64.63
				c-4.85,15.82-12.69,30.92-23.99,43.1c-10.57,11.34-24.88,19.33-40.29,21.55c-10.17,1.57-20.65,1.01-30.65-1.33
				c-16.2-6.26-29.29-18.72-39.34-32.62c-15.81-22.22-24.14-48.87-28.43-75.56c-1.97-11.22-1.31-22.67-0.27-33.94
				c2.17-19.05,7.24-38.03,16.8-54.74c-3.95,2.33-8.54,3.05-13,3.7c-10.73,1.29-21.53,1.22-32.32,1.15
				c1.67,46.84,2.37,93.72,3.94,140.56c-22.15,6.06-44.55,11.38-66.23,19.03c-0.09-4.24,1.2-8.33,2.04-12.45
				c10.13-44.34,21.16-88.47,31.44-132.77c1.78-8.99,4.72-17.82,5.37-26.99c-3.25,1.87-6.63,3.53-10.26,4.52
				c-20.82,7.1-41.65,14.19-62.4,21.51c0.5-11.18,1.8-22.3,3.39-33.37C29.21,469.61,31.8,456.11,36.65,443.33z M201.15,492.69
				c-10.37,8.07-17.37,19.68-22.05,31.81c-6.95,18.25-8.9,38.51-4.73,57.65c3.88,18.22,12.76,35.28,25.14,49.16
				c-1.55,11.59-2.88,23.2-4.41,34.79c-0.49,2.81,0.98,5.5,2.27,7.91c4.05,6.78,11.93,9.87,19.32,11.35
				c12.37,2.18,25.12,1.38,37.41-0.91c5.99-1.65,8.45-8.16,9.98-13.56c4.13-17.01,3.47-34.72,2.73-52.08
				c5.15-6.58,8.63-14.25,11.78-21.93c5.02-11.25,5.41-23.79,6.22-35.89c-0.01-13.16-1.64-26.53-6.67-38.79
				c-6.09-15.38-17.43-28.79-32.03-36.7c-4.43-2.62-9.77-1.74-14.65-2.27C220.59,482.21,209.74,486.18,201.15,492.69z"/>
		</g>
		<path fill="#999999" d="M440.55,459.04c5.56-1.31,11.17-2.6,16.9-2.8c1.84,17.99,4.87,35.86,6.55,53.88
			c0.16,2.8,0.98,5.69-0.06,8.43c-29.77-2.7-59.44-6.52-89.19-9.54c-7.04,14.55-8.78,30.89-9.68,46.82
			c13.16-3.07,26.32-6.17,39.47-9.29c0.45,11.18,1.22,22.34,1.68,33.53c0.75,7.46,0.35,15,1.43,22.43
			c-11.39,1.56-23.2,1.83-34.45-0.87c-0.69,10.05,0.05,20.15-0.41,30.22c-0.16,5.72-0.03,11.45-0.06,17.18
			c26.94-9.12,54.68-16.24,82.98-19.42c4.19,22.06,7.99,44.21,10.62,66.52c1.18,10.77,2.26,21.65,1.18,32.49
			c-20.23-6.41-39.87-14.6-59.25-23.23c-29.23-13.3-57.81-28.44-83.81-47.39c3.56-24.07,5.57-48.36,6.51-72.67
			c0.32-18.35,0.32-36.99-4.05-54.92c-1.58-7.39-6.07-13.59-9.04-20.41c2.23-3.6,6.37-4.87,9.93-6.72
			c18.45-8.85,37.1-17.3,56.06-25.03C402.37,470.8,421.13,463.76,440.55,459.04z"/>
		<path fill="#999999" d="M218.26,511.74c10.05-7.07,23.57-8.03,34.85-3.46c0.81,22.09,0.58,44.21,0.9,66.31
			c0.33,7.81,0.08,15.62,0.15,23.43c0.7,12.36,0.33,24.74,0.33,37.11c-1.03,9.82-1.23,19.87-4.31,29.33
			c-1.35,4.06-3.73,8.49-8.1,9.81c-7.77,1.69-15.79,1.23-23.67,0.76c-3.35-0.19-6.98-1.13-9.18-3.85c-1.87-2.26-2.34-5.31-2.14-8.16
			C210.84,612.6,214.51,562.17,218.26,511.74z"/>
		<path fill="#999999" d="M258.23,509.53c4.79,5.77,9.71,11.44,14.41,17.28c12.8,28.14,8.24,63.51-11.81,87.18
			C259.95,579.17,259.35,544.34,258.23,509.53z"/>
		<path fill="#999999" d="M199.2,531.68c3.59-7.28,10.38-12.11,15.49-18.23c-2.3,31.53-4.33,63.08-7.11,94.57
			c-0.27,1.64-0.25,3.45-1.15,4.91c-1.64,0.33-2.76-1.03-3.83-2.01c-9.31-9.87-14.43-23.26-15.05-36.73
			C187.08,559.24,191.89,544.57,199.2,531.68z"/>
	</g>
	<g>
		<path fill="none" stroke="#BABAAF" stroke-width="30" d="M243.62,20.11c8.58-1.76,17.2,1.81,23.99,6.81
			c13.04,20.03,14.13,46.3,6.02,68.43c-3.82,11.69-11.1,22.38-21.18,29.54c-6.05,4.21-13.55,6.41-20.92,5.38
			c-8.87-1.19-16.74-6.21-23.12-12.28c-2.98-2.61-4.22-6.49-5.55-10.09c-4.6-13.12-4.66-27.68-0.37-40.88
			c5.2-16.27,16.2-30.1,29.02-41.1C234.88,22.87,239.19,21.01,243.62,20.11z"/>
		<path fill="none" stroke="#BABAAF" stroke-width="30" d="M347.12,57.67c23.17-18.87,57.1-22.92,84.17-10.41
			c3.58,1.65,6.71,4.09,10.09,6.1c-4.11,13.33-8.39,26.6-12.61,39.89c-20.39-0.4-41.73,4.19-58.16,16.82
			c-12.2,9.35-19.87,23.74-22.23,38.81c-2.7,16.64-3.05,33.91,0.88,50.39c2.91,11.86,9.09,23.65,19.72,30.27
			c10.22,6.58,23.01,7.23,34.73,5.63c9.88-1.45,19.28-5.16,27.96-10.04c-2.93-14.92-5.2-30.51-1.82-45.55
			c1.76-8.13,7.21-16.23,15.73-18.2c9.36-2.03,19.22,0.67,27.58,4.92c8.09,7.39,11.28,18.65,12.73,29.18
			c2,14.85,0.07,29.94-3.01,44.5c-5.31,19.42-15.97,37.86-31.91,50.43c-0.37-0.54-1.1-1.61-1.47-2.15
			c5.57-8.47,12.03-16.99,13.88-27.19c1.29-4.58-2.92-7.53-6.07-9.89c-11.21-7.92-25.56-9.82-38.96-8.68
			c-13,1.22-25.63,4.99-37.69,9.91c-4.32,1.55-7.72,4.76-11.44,7.33c-9.49,7.07-19.08,14.15-27.33,22.69
			c-1.7,1.63-2.87,3.68-3.68,5.87c-9.01-4.65-15.64-12.77-20.77-21.32c-10.55-17.87-14.97-38.61-17.1-59.04
			c-2.21-25.22-1.15-50.69,2.37-75.74C310.22,104.03,324.04,76.24,347.12,57.67z"/>
		<path fill="none" stroke="#BABAAF" stroke-width="30" d="M126.54,108.46c16.14-1.04,32.27-2.17,48.41-3.26
			c-3.19-13.95-6.29-27.91-9.38-41.88c-9.71,0.5-19.34-1.45-28.89-2.91c-28.66-4.95-57-11.51-85.29-18.22
			C46.97,66,42.64,89.83,38.15,113.63c18.8-8.09,38.73-13.19,58.74-17.27c-4.39,52.07-8.22,104.2-12.61,156.28
			c6.57,2.07,13.58,1.13,20.13-0.52c8.03-2.09,15.83-5.12,23.12-9.09c3.08-1.76,6.45-3.54,8.08-6.87
			c-1.91-5.53-1.78-11.46-2.5-17.19C130.27,182.17,128.38,145.31,126.54,108.46z"/>
		<path fill="none" stroke="#BABAAF" stroke-width="30" d="M221.12,160.96c11.6-0.31,23.18-1.07,34.77-1.44
			c0.98,20.32,0.67,40.68,1.76,61c-8.01-0.12-16.01-0.62-23.95-1.65c-3.55-0.5-7.11-1.17-10.34-2.8
			c-2.98-9.71-1.87-20.01-2.48-30.01C220.78,177.69,220.75,169.32,221.12,160.96z"/>
		<path fill="none" stroke="#BABAAF" stroke-width="30" d="M219.65,226.94c10.43,0.96,20.95,0.55,31.4,1.28
			c7.89,0.34,15.79,0.49,23.68,0.75c14.8,64.82,29.53,129.66,44.5,194.44c3.52,14.85,6.77,29.76,10.6,44.53
			c0.44,2.03-0.05,4.95-2.25,5.7c-1.94-0.06-3.9-0.36-5.61-1.32c-21.49-11.44-42.96-22.91-64.48-34.28
			c-0.17-3.94-0.34-7.88-0.49-11.82c10.8,4.95,21.57,9.97,32.41,14.82c-16.92-49.12-33.77-98.26-50.63-147.4
			c-15.77,32.51-31.36,65.1-47.09,97.63c9.08,4.79,18.15,9.62,27.19,14.48c0.49,5.09,0.95,10.18,1.12,15.3
			c-11.33-3.72-22.64-7.54-33.96-11.29c-4.75,10.96-9.47,21.93-14.16,32.9c-11.16-0.28-22.28,0.59-33.43,0.39
			c-7.17-0.13-14.34,0.23-21.52,0.19C151.15,371.13,185.44,299.06,219.65,226.94z"/>
		<path fill="none" stroke="#BABAAF" stroke-width="30" d="M46.1,250.61c38.46,5.42,77.01,10.4,115.21,17.51
			c3,0.98,7.81,0.56,8.71,4.41c2.9,10.52,5.47,21.42,4.83,32.41c-0.07,2.8-3.37,3.36-5.53,3.84c-13.28,2.02-26.77,1.54-40.16,1.66
			c0.05,8.19-0.19,16.39,0.39,24.57c-0.09,24,0.09,47.98,0.19,71.98c0.2,3.23-1.12,6.25-2.11,9.25c-2.55,7-5.29,14.08-9.83,20.06
			c-2.16,2.93-5.5,5.24-9.29,5.07c-8.74,0.02-17.55-0.42-26.18-1.83c3.39-35.56,6.12-71.24,11.27-106.62
			c1.34-8.79,2.65-17.63,5.17-26.18c-20.14,4.28-40.3,8.58-60.23,13.73c-1.99-0.29-1.35-3.01-1.69-4.44
			c-0.08-15.28,1.79-30.49,3.9-45.6C41.99,263.72,42.56,256.6,46.1,250.61z"/>
		<path fill="none" stroke="#BABAAF" stroke-width="30" d="M376.49,263.1c16.37-9.03,36.11-11.61,54.26-7.19
			c4.74,2.13,9.88,5.38,10.98,10.88c-3.13,17.89-5.68,35.96-10.81,53.42c-0.93,2.64-1.58,5.61-3.66,7.61
			c-3.07,1.67-6.93,1.89-10.19,0.66c-10.67-3.84-23.02-4.39-33.36,0.75c-8.26,4.01-14.23,11.6-17.79,19.91
			c-3.78,8.47-5.3,17.7-6.46,26.84c-2.33,13.12-2.54,27.12,2.53,39.65c3.42,8.54,10.66,15.45,19.48,18.2
			c9.9,3.46,20.74,1.96,30.44-1.39c10.21-3.57,19.42-9.96,26.33-18.29c-5.58-13.21-8.87-27.93-6.4-42.24
			c1.76-10.44,8.74-19.39,17.45-25.12c4.87-3.21,11.23-4.67,16.8-2.46c6.24,2.71,10.68,8.59,13.06,14.8
			c3.86,18.25,5.56,37.13,3.57,55.73c-1.18,10.05-3.53,20.09-8.23,29.11c-3.24,6.71-8.55,12.04-12.98,17.92
			c-1.09-8.81-2.04-17.77-4.99-26.19c-16.15,6.08-31.64,13.75-47.34,20.9c-18.98,8.88-37.93,17.85-56.79,26.98
			c-2.59,1.49-5.21-1.2-5.87-3.59c-10.49-29.24-21.7-58.26-30.72-88c-1.12-3.89-2.36-7.83-2.35-11.92
			c-0.1-8.95-0.68-17.97,0.58-26.86c1.48-13.01,6.04-25.58,12.95-36.68C339.28,295.48,354.72,275.04,376.49,263.1z"/>
		<path fill="none" stroke="#BABAAF" stroke-width="30" d="M230.44,318.77c2.46-5.66,5.18-11.21,7.82-16.79
			c3.33,11.71,6.88,23.35,10.31,35.03c3.33,8.6,1.77,18.01,1.62,26.99c-0.02,25.38-0.55,50.75-0.46,76.13
			c-8.15-0.78-16.33-0.28-24.49-0.74c1.32-35.5,2.98-70.98,4.35-106.48C230.11,328.21,229.67,323.42,230.44,318.77z"/>
		<path fill="none" stroke="#BABAAF" stroke-width="30" d="M140.43,338.59c6.9-3.47,13.82-6.9,20.72-10.36
			c-6.66,15.7-13.36,31.39-19.89,47.15C141.04,363.11,140.64,350.85,140.43,338.59z"/>
		<path fill="none" stroke="#BABAAF" stroke-width="30" d="M217.33,351.09c0.65,0.09,1.96,0.27,2.62,0.35
			c0.08,13.66,0.18,27.31,0.63,40.96c-4.91-2.75-9.81-5.52-14.74-8.22C209.62,373.13,213.49,362.12,217.33,351.09z"/>
		<path fill="none" stroke="#BABAAF" stroke-width="30" d="M256.44,372.73c0.73-0.03,2.19-0.1,2.92-0.14
			c5.49,20.06,11.41,39.99,16.93,60.04c-6.44-3.84-13.35-6.82-19.88-10.53C256.5,405.65,256.43,389.19,256.44,372.73z"/>
		<path fill="none" stroke="#BABAAF" stroke-width="30" d="M183.72,464.58c3.86-14.15,8.26-28.15,12.67-42.14
			c6.46,2.91,13.05,5.53,19.53,8.42c-0.08,4.01,0.14,8.01,0.29,12.02C205.15,449.75,194.01,456.58,183.72,464.58z"/>
		<g>
			<path fill="none" stroke="#BABAAF" stroke-width="30" d="M36.65,443.33c1.53-3.77,3.08-7.6,5.51-10.9
				c39.38,11.49,78.63,23.46,118.01,34.98c4.48,7.93,8.44,16.8,7.75,26.13c8.53-14.37,20.68-26.42,34.67-35.5
				c12.18-9.72,28.81-13.71,44.02-10.12c9.64,2.29,19.02,6.72,26.08,13.77c25.01,29.57,41.08,66.81,44.72,105.41
				c1.8,21.67-0.05,43.7-6.05,64.63c-4.85,15.82-12.69,30.92-23.99,43.1c-10.57,11.34-24.88,19.33-40.29,21.55
				c-10.17,1.57-20.65,1.01-30.65-1.33c-16.2-6.26-29.29-18.72-39.34-32.62c-15.81-22.22-24.14-48.87-28.43-75.56
				c-1.97-11.22-1.31-22.67-0.27-33.94c2.17-19.05,7.24-38.03,16.8-54.74c-3.95,2.33-8.54,3.05-13,3.7
				c-10.73,1.29-21.53,1.22-32.32,1.15c1.67,46.84,2.37,93.72,3.94,140.56c-22.15,6.06-44.55,11.38-66.23,19.03
				c-0.09-4.24,1.2-8.33,2.04-12.45c10.13-44.34,21.16-88.47,31.44-132.77c1.78-8.99,4.72-17.82,5.37-26.99
				c-3.25,1.87-6.63,3.53-10.26,4.52c-20.82,7.1-41.65,14.19-62.4,21.51c0.5-11.18,1.8-22.3,3.39-33.37
				C29.21,469.61,31.8,456.11,36.65,443.33z M201.15,492.69c-10.37,8.07-17.37,19.68-22.05,31.81c-6.95,18.25-8.9,38.51-4.73,57.65
				c3.88,18.22,12.76,35.28,25.14,49.16c-1.55,11.59-2.88,23.2-4.41,34.79c-0.49,2.81,0.98,5.5,2.27,7.91
				c4.05,6.78,11.93,9.87,19.32,11.35c12.37,2.18,25.12,1.38,37.41-0.91c5.99-1.65,8.45-8.16,9.98-13.56
				c4.13-17.01,3.47-34.72,2.73-52.08c5.15-6.58,8.63-14.25,11.78-21.93c5.02-11.25,5.41-23.79,6.22-35.89
				c-0.01-13.16-1.64-26.53-6.67-38.79c-6.09-15.38-17.43-28.79-32.03-36.7c-4.43-2.62-9.77-1.74-14.65-2.27
				C220.59,482.21,209.74,486.18,201.15,492.69z"/>
		</g>
		<path fill="none" stroke="#BABAAF" stroke-width="30" d="M440.55,459.04c5.56-1.31,11.17-2.6,16.9-2.8
			c1.84,17.99,4.87,35.86,6.55,53.88c0.16,2.8,0.98,5.69-0.06,8.43c-29.77-2.7-59.44-6.52-89.19-9.54
			c-7.04,14.55-8.78,30.89-9.68,46.82c13.16-3.07,26.32-6.17,39.47-9.29c0.45,11.18,1.22,22.34,1.68,33.53
			c0.75,7.46,0.35,15,1.43,22.43c-11.39,1.56-23.2,1.83-34.45-0.87c-0.69,10.05,0.05,20.15-0.41,30.22
			c-0.16,5.72-0.03,11.45-0.06,17.18c26.94-9.12,54.68-16.24,82.98-19.42c4.19,22.06,7.99,44.21,10.62,66.52
			c1.18,10.77,2.26,21.65,1.18,32.49c-20.23-6.41-39.87-14.6-59.25-23.23c-29.23-13.3-57.81-28.44-83.81-47.39
			c3.56-24.07,5.57-48.36,6.51-72.67c0.32-18.35,0.32-36.99-4.05-54.92c-1.58-7.39-6.07-13.59-9.04-20.41
			c2.23-3.6,6.37-4.87,9.93-6.72c18.45-8.85,37.1-17.3,56.06-25.03C402.37,470.8,421.13,463.76,440.55,459.04z"/>
		<path fill="none" stroke="#BABAAF" stroke-width="30" d="M218.26,511.74c10.05-7.07,23.57-8.03,34.85-3.46
			c0.81,22.09,0.58,44.21,0.9,66.31c0.33,7.81,0.08,15.62,0.15,23.43c0.7,12.36,0.33,24.74,0.33,37.11
			c-1.03,9.82-1.23,19.87-4.31,29.33c-1.35,4.06-3.73,8.49-8.1,9.81c-7.77,1.69-15.79,1.23-23.67,0.76
			c-3.35-0.19-6.98-1.13-9.18-3.85c-1.87-2.26-2.34-5.31-2.14-8.16C210.84,612.6,214.51,562.17,218.26,511.74z"/>
		<path fill="none" stroke="#BABAAF" stroke-width="30" d="M258.23,509.53c4.79,5.77,9.71,11.44,14.41,17.28
			c12.8,28.14,8.24,63.51-11.81,87.18C259.95,579.17,259.35,544.34,258.23,509.53z"/>
		<path fill="none" stroke="#BABAAF" stroke-width="30" d="M199.2,531.68c3.59-7.28,10.38-12.11,15.49-18.23
			c-2.3,31.53-4.33,63.08-7.11,94.57c-0.27,1.64-0.25,3.45-1.15,4.91c-1.64,0.33-2.76-1.03-3.83-2.01
			c-9.31-9.87-14.43-23.26-15.05-36.73C187.08,559.24,191.89,544.57,199.2,531.68z"/>
	</g>
</g>
<g>
	<g>
		<path d="M243.62,20.11c8.58-1.76,17.2,1.81,23.99,6.81c13.04,20.03,14.13,46.3,6.02,68.43c-3.82,11.69-11.1,22.38-21.18,29.54
			c-6.05,4.21-13.55,6.41-20.92,5.38c-8.87-1.19-16.74-6.21-23.12-12.28c-2.98-2.61-4.22-6.49-5.55-10.09
			c-4.6-13.12-4.66-27.68-0.37-40.88c5.2-16.27,16.2-30.1,29.02-41.1C234.88,22.87,239.19,21.01,243.62,20.11z"/>
		<path d="M347.12,57.67c23.17-18.87,57.1-22.92,84.17-10.41c3.58,1.65,6.71,4.09,10.09,6.1c-4.11,13.33-8.39,26.6-12.61,39.89
			c-20.39-0.4-41.73,4.19-58.16,16.82c-12.2,9.35-19.87,23.74-22.23,38.81c-2.7,16.64-3.05,33.91,0.88,50.39
			c2.91,11.86,9.09,23.65,19.72,30.27c10.22,6.58,23.01,7.23,34.73,5.63c9.88-1.45,19.28-5.16,27.96-10.04
			c-2.93-14.92-5.2-30.51-1.82-45.55c1.76-8.13,7.21-16.23,15.73-18.2c9.36-2.03,19.22,0.67,27.58,4.92
			c8.09,7.39,11.28,18.65,12.73,29.18c2,14.85,0.07,29.94-3.01,44.5c-5.31,19.42-15.97,37.86-31.91,50.43
			c-0.37-0.54-1.1-1.61-1.47-2.15c5.57-8.47,12.03-16.99,13.88-27.19c1.29-4.58-2.92-7.53-6.07-9.89
			c-11.21-7.92-25.56-9.82-38.96-8.68c-13,1.22-25.63,4.99-37.69,9.91c-4.32,1.55-7.72,4.76-11.44,7.33
			c-9.49,7.07-19.08,14.15-27.33,22.69c-1.7,1.63-2.87,3.68-3.68,5.87c-9.01-4.65-15.64-12.77-20.77-21.32
			c-10.55-17.87-14.97-38.61-17.1-59.04c-2.21-25.22-1.15-50.69,2.37-75.74C310.22,104.03,324.04,76.24,347.12,57.67z"/>
		<path d="M51.39,42.19c28.29,6.71,56.63,13.27,85.29,18.22c9.55,1.46,19.18,3.41,28.89,2.91c3.09,13.97,6.19,27.93,9.38,41.88
			c-16.14,1.09-32.27,2.22-48.41,3.26c1.84,36.85,3.73,73.71,6.57,110.51c0.72,5.73,0.59,11.66,2.5,17.19
			c-1.63,3.33-5,5.11-8.08,6.87c-7.29,3.97-15.09,7-23.12,9.09c-6.55,1.65-13.56,2.59-20.13,0.52
			c4.39-52.08,8.22-104.21,12.61-156.28c-20.01,4.08-39.94,9.18-58.74,17.27C42.64,89.83,46.97,66,51.39,42.19z"/>
		<path d="M221.12,160.96c11.6-0.31,23.18-1.07,34.77-1.44c0.98,20.32,0.67,40.68,1.76,61c-8.01-0.12-16.01-0.62-23.95-1.65
			c-3.55-0.5-7.11-1.17-10.34-2.8c-2.98-9.71-1.87-20.01-2.48-30.01C220.78,177.69,220.75,169.32,221.12,160.96z"/>
		<path d="M219.65,226.94c10.43,0.96,20.95,0.55,31.4,1.28c7.89,0.34,15.79,0.49,23.68,0.75c14.8,64.82,29.53,129.66,44.5,194.44
			c3.52,14.85,6.77,29.76,10.6,44.53c0.44,2.03-0.05,4.95-2.25,5.7c-1.94-0.06-3.9-0.36-5.61-1.32
			c-21.49-11.44-42.96-22.91-64.48-34.28c-0.17-3.94-0.34-7.88-0.49-11.82c10.8,4.95,21.57,9.97,32.41,14.82
			c-16.92-49.12-33.77-98.26-50.63-147.4c-15.77,32.51-31.36,65.1-47.09,97.63c9.08,4.79,18.15,9.62,27.19,14.48
			c0.49,5.09,0.95,10.18,1.12,15.3c-11.33-3.72-22.64-7.54-33.96-11.29c-4.75,10.96-9.47,21.93-14.16,32.9
			c-11.16-0.28-22.28,0.59-33.43,0.39c-7.17-0.13-14.34,0.23-21.52,0.19C151.15,371.13,185.44,299.06,219.65,226.94z"/>
		<path d="M46.1,250.61c38.46,5.42,77.01,10.4,115.21,17.51c3,0.98,7.81,0.56,8.71,4.41c2.9,10.52,5.47,21.42,4.83,32.41
			c-0.07,2.8-3.37,3.36-5.53,3.84c-13.28,2.02-26.77,1.54-40.16,1.66c0.05,8.19-0.19,16.39,0.39,24.57
			c-0.09,24,0.09,47.98,0.19,71.98c0.2,3.23-1.12,6.25-2.11,9.25c-2.55,7-5.29,14.08-9.83,20.06c-2.16,2.93-5.5,5.24-9.29,5.07
			c-8.74,0.02-17.55-0.42-26.18-1.83c3.39-35.56,6.12-71.24,11.27-106.62c1.34-8.79,2.65-17.63,5.17-26.18
			c-20.14,4.28-40.3,8.58-60.23,13.73c-1.99-0.29-1.35-3.01-1.69-4.44c-0.08-15.28,1.79-30.49,3.9-45.6
			C41.99,263.72,42.56,256.6,46.1,250.61z"/>
		<path d="M376.49,263.1c16.37-9.03,36.11-11.61,54.26-7.19c4.74,2.13,9.88,5.38,10.98,10.88c-3.13,17.89-5.68,35.96-10.81,53.42
			c-0.93,2.64-1.58,5.61-3.66,7.61c-3.07,1.67-6.93,1.89-10.19,0.66c-10.67-3.84-23.02-4.39-33.36,0.75
			c-8.26,4.01-14.23,11.6-17.79,19.91c-3.78,8.47-5.3,17.7-6.46,26.84c-2.33,13.12-2.54,27.12,2.53,39.65
			c3.42,8.54,10.66,15.45,19.48,18.2c9.9,3.46,20.74,1.96,30.44-1.39c10.21-3.57,19.42-9.96,26.33-18.29
			c-5.58-13.21-8.87-27.93-6.4-42.24c1.76-10.44,8.74-19.39,17.45-25.12c4.87-3.21,11.23-4.67,16.8-2.46
			c6.24,2.71,10.68,8.59,13.06,14.8c3.86,18.25,5.56,37.13,3.57,55.73c-1.18,10.05-3.53,20.09-8.23,29.11
			c-3.24,6.71-8.55,12.04-12.98,17.92c-1.09-8.81-2.04-17.77-4.99-26.19c-16.15,6.08-31.64,13.75-47.34,20.9
			c-18.98,8.88-37.93,17.85-56.79,26.98c-2.59,1.49-5.21-1.2-5.87-3.59c-10.49-29.24-21.7-58.26-30.72-88
			c-1.12-3.89-2.36-7.83-2.35-11.92c-0.1-8.95-0.68-17.97,0.58-26.86c1.48-13.01,6.04-25.58,12.95-36.68
			C339.28,295.48,354.72,275.04,376.49,263.1z"/>
		<path d="M230.44,318.77c2.46-5.66,5.18-11.21,7.82-16.79c3.33,11.71,6.88,23.35,10.31,35.03c3.33,8.6,1.77,18.01,1.62,26.99
			c-0.02,25.38-0.55,50.75-0.46,76.13c-8.15-0.78-16.33-0.28-24.49-0.74c1.32-35.5,2.98-70.98,4.35-106.48
			C230.11,328.21,229.67,323.42,230.44,318.77z"/>
		<path d="M140.43,338.59c6.9-3.47,13.82-6.9,20.72-10.36c-6.66,15.7-13.36,31.39-19.89,47.15
			C141.04,363.11,140.64,350.85,140.43,338.59z"/>
		<path d="M217.33,351.09c0.65,0.09,1.96,0.27,2.62,0.35c0.08,13.66,0.18,27.31,0.63,40.96c-4.91-2.75-9.81-5.52-14.74-8.22
			C209.62,373.13,213.49,362.12,217.33,351.09z"/>
		<path d="M256.44,372.73c0.73-0.03,2.19-0.1,2.92-0.14c5.49,20.06,11.41,39.99,16.93,60.04c-6.44-3.84-13.35-6.82-19.88-10.53
			C256.5,405.65,256.43,389.19,256.44,372.73z"/>
		<path d="M183.72,464.58c3.86-14.15,8.26-28.15,12.67-42.14c6.46,2.91,13.05,5.53,19.53,8.42c-0.08,4.01,0.14,8.01,0.29,12.02
			C205.15,449.75,194.01,456.58,183.72,464.58z"/>
		<g>
			<path d="M36.65,443.33c1.53-3.77,3.08-7.6,5.51-10.9c39.38,11.49,78.63,23.46,118.01,34.98c4.48,7.93,8.44,16.8,7.75,26.13
				c8.53-14.37,20.68-26.42,34.67-35.5c12.18-9.72,28.81-13.71,44.02-10.12c9.64,2.29,19.02,6.72,26.08,13.77
				c25.01,29.57,41.08,66.81,44.72,105.41c1.8,21.67-0.05,43.7-6.05,64.63c-4.85,15.82-12.69,30.92-23.99,43.1
				c-10.57,11.34-24.88,19.33-40.29,21.55c-10.17,1.57-20.65,1.01-30.65-1.33c-16.2-6.26-29.29-18.72-39.34-32.62
				c-15.81-22.22-24.14-48.87-28.43-75.56c-1.97-11.22-1.31-22.67-0.27-33.94c2.17-19.05,7.24-38.03,16.8-54.74
				c-3.95,2.33-8.54,3.05-13,3.7c-10.73,1.29-21.53,1.22-32.32,1.15c1.67,46.84,2.37,93.72,3.94,140.56
				c-22.15,6.06-44.55,11.38-66.23,19.03c-0.09-4.24,1.2-8.33,2.04-12.45c10.13-44.34,21.16-88.47,31.44-132.77
				c1.78-8.99,4.72-17.82,5.37-26.99c-3.25,1.87-6.63,3.53-10.26,4.52c-20.82,7.1-41.65,14.19-62.4,21.51
				c0.5-11.18,1.8-22.3,3.39-33.37C29.21,469.61,31.8,456.11,36.65,443.33z M201.15,492.69c-10.37,8.07-17.37,19.68-22.05,31.81
				c-6.95,18.25-8.9,38.51-4.73,57.65c3.88,18.22,12.76,35.28,25.14,49.16c-1.55,11.59-2.88,23.2-4.41,34.79
				c-0.49,2.81,0.98,5.5,2.27,7.91c4.05,6.78,11.93,9.87,19.32,11.35c12.37,2.18,25.12,1.38,37.41-0.91
				c5.99-1.65,8.45-8.16,9.98-13.56c4.13-17.01,3.47-34.72,2.73-52.08c5.15-6.58,8.63-14.25,11.78-21.93
				c5.02-11.25,5.41-23.79,6.22-35.89c-0.01-13.16-1.64-26.53-6.67-38.79c-6.09-15.38-17.43-28.79-32.03-36.7
				c-4.43-2.62-9.77-1.74-14.65-2.27C220.59,482.21,209.74,486.18,201.15,492.69z"/>
		</g>
		<path d="M440.55,459.04c5.56-1.31,11.17-2.6,16.9-2.8c1.84,17.99,4.87,35.86,6.55,53.88c0.16,2.8,0.98,5.69-0.06,8.43
			c-29.77-2.7-59.44-6.52-89.19-9.54c-7.04,14.55-8.78,30.89-9.68,46.82c13.16-3.07,26.32-6.17,39.47-9.29
			c0.45,11.18,1.22,22.34,1.68,33.53c0.75,7.46,0.35,15,1.43,22.43c-11.39,1.56-23.2,1.83-34.45-0.87
			c-0.69,10.05,0.05,20.15-0.41,30.22c-0.16,5.72-0.03,11.45-0.06,17.18c26.94-9.12,54.68-16.24,82.98-19.42
			c4.19,22.06,7.99,44.21,10.62,66.52c1.18,10.77,2.26,21.65,1.18,32.49c-20.23-6.41-39.87-14.6-59.25-23.23
			c-29.23-13.3-57.81-28.44-83.81-47.39c3.56-24.07,5.57-48.36,6.51-72.67c0.32-18.35,0.32-36.99-4.05-54.92
			c-1.58-7.39-6.07-13.59-9.04-20.41c2.23-3.6,6.37-4.87,9.93-6.72c18.45-8.85,37.1-17.3,56.06-25.03
			C402.37,470.8,421.13,463.76,440.55,459.04z"/>
		<path d="M218.26,511.74c10.05-7.07,23.57-8.03,34.85-3.46c0.81,22.09,0.58,44.21,0.9,66.31c0.33,7.81,0.08,15.62,0.15,23.43
			c0.7,12.36,0.33,24.74,0.33,37.11c-1.03,9.82-1.23,19.87-4.31,29.33c-1.35,4.06-3.73,8.49-8.1,9.81
			c-7.77,1.69-15.79,1.23-23.67,0.76c-3.35-0.19-6.98-1.13-9.18-3.85c-1.87-2.26-2.34-5.31-2.14-8.16
			C210.84,612.6,214.51,562.17,218.26,511.74z"/>
		<path d="M258.23,509.53c4.79,5.77,9.71,11.44,14.41,17.28c12.8,28.14,8.24,63.51-11.81,87.18
			C259.95,579.17,259.35,544.34,258.23,509.53z"/>
		<path d="M199.2,531.68c3.59-7.28,10.38-12.11,15.49-18.23c-2.3,31.53-4.33,63.08-7.11,94.57c-0.27,1.64-0.25,3.45-1.15,4.91
			c-1.64,0.33-2.76-1.03-3.83-2.01c-9.31-9.87-14.43-23.26-15.05-36.73C187.08,559.24,191.89,544.57,199.2,531.68z"/>
	</g>
</g>
</svg>
